#!OML:ASF E:\emotionWalksFemale\Project 1\Capture day 1\Session 1\Female1.ASF
:FULLY-SPECIFIED
:DEGREES
988
root 8.196 15.5771 -36.7852 -1.47966 -73.9033 -355.936
lowerback 8.2947 3.28287 2.39189
upperback -4.47572 4.68393 -0.00890583
thorax -9.22114 2.11524 -2.0954
lowerneck -1.11806 15.7374 9.12216
upperneck 2.22481 21.1237 -7.64076
head 2.87146 10.5183 -3.09881
rclavicle -5.73991e-015 1.19271e-015
rhumerus -21.5754 2.50108 -77.7268
rradius 46.9995
rwrist -8.6816
rhand -2.60859 -58.2168
rfingers 7.12502
rthumb 23.0896 -1166.85
lclavicle -5.73991e-015 1.19271e-015
lhumerus -44.2422 15.875 51.3208
lradius 42.0494
lwrist 0.608105
lhand -10.7868 -29.5401
lfingers 7.12502
lthumb 15.2259 -0.120433
rfemur -19.8397 12.1408 17.8697
rtibia 43.8247
rfoot -16.9942 0.679339
rtoes -26.3064
lfemur -13.7384 -22.6159 -24.381
ltibia 30.8676
lfoot 2.97222 -27.9045
ltoes 40.6859
989
root 8.19139 15.5851 -36.8258 -0.872875 -72.1633 -356.483
lowerback 8.47814 3.16457 2.46413
upperback -4.54587 4.53797 -0.0513727
thorax -9.40414 2.03281 -2.1737
lowerneck -1.35051 15.5012 8.95165
upperneck 2.49607 20.7966 -7.47156
head 2.93369 10.3511 -3.01834
rclavicle -7.41715e-014 -1.94809e-014
rhumerus -21.7687 2.78055 -77.8596
rradius 46.8642
rwrist -8.56309
rhand -3.2435 -58.4685
rfingers 7.12502
rthumb 22.4803 -1167.18
lclavicle -7.41715e-014 -1.94809e-014
lhumerus -44.367 15.7446 51.4495
lradius 42.1924
lwrist 0.618387
lhand -10.1712 -28.6501
lfingers 7.12502
lthumb 15.8188 0.723645
rfemur -19.6235 11.6726 17.989
rtibia 43.5085
rfoot -17.0146 0.650979
rtoes -26.5701
lfemur -13.9467 -22.6565 -24.1827
ltibia 30.8988
lfoot 3.33173 -28.5618
ltoes 40.9278
990
root 8.18629 15.5917 -36.8691 0.0183907 -70.5251 -357.322
lowerback 8.64726 3.03234 2.60072
upperback -4.63183 4.3867 -0.0315866
thorax -9.59786 1.94524 -2.21966
lowerneck -1.52267 15.2558 8.58833
upperneck 2.7646 20.4591 -7.16613
head 2.94261 10.1806 -2.8738
rclavicle -2.5842e-015 3.18055e-015
rhumerus -21.9309 2.92302 -78.0214
rradius 46.6672
rwrist -8.00549
rhand -2.45272 -57.9747
rfingers 7.12502
rthumb 23.2391 -1166.59
lclavicle -2.5842e-015 3.18055e-015
lhumerus -44.5133 15.8868 51.4484
lradius 42.1496
lwrist 0.366509
lhand -9.59102 -28.4057
lfingers 7.12502
lthumb 16.3775 0.922807
rfemur -19.4422 11.278 18.2983
rtibia 43.2471
rfoot -16.9663 0.56003
rtoes -26.2311
lfemur -14.1572 -22.2957 -23.8455
ltibia 30.9517
lfoot 3.06038 -29.0468
ltoes 39.3004
991
root 8.18005 15.6152 -36.9088 0.816713 -68.8596 -358.103
lowerback 8.72442 3.01511 2.43171
upperback -4.69146 4.36216 0.155095
thorax -9.738 1.94691 -1.93088
lowerneck -1.55619 14.878 8.27306
upperneck 2.99424 19.9632 -7.06484
head 2.9359 9.93174 -2.82583
rclavicle -5.07149e-014 -1.03368e-014
rhumerus -22.1272 2.79383 -77.8578
rradius 46.4664
rwrist -7.23165
rhand -0.779384 -57.1973
rfingers 7.12502
rthumb 24.8437 -1165.6
lclavicle -5.07149e-014 -1.03368e-014
lhumerus -44.7937 16.0942 51.7003
lradius 42.0902
lwrist -0.393631
lhand -9.4612 -29.0115
lfingers 7.12502
lthumb 16.5024 0.306706
rfemur -19.1587 10.8886 18.6457
rtibia 42.989
rfoot -16.6289 0.60507
rtoes -26.4125
lfemur -14.4686 -22.9717 -23.0942
ltibia 30.9998
lfoot 7.25488 -27.7574
ltoes 49.4407
992
root 8.1721 15.6164 -36.9511 1.04252 -67.2704 -358.341
lowerback 8.92405 3.13057 2.25176
upperback -4.80696 4.49655 0.0831564
thorax -9.98565 2.01367 -1.94766
lowerneck -1.62768 14.3557 8.41702
upperneck 3.38175 19.266 -6.97496
head 3.03148 9.5871 -2.85488
rclavicle 3.88376e-014 7.55382e-015
rhumerus -22.5769 2.1469 -77.8443
rradius 46.2901
rwrist -6.62728
rhand -0.150749 -56.8789
rfingers 7.12502
rthumb 25.446 -1165.2
lclavicle 3.88376e-014 7.55382e-015
lhumerus -44.6702 15.4271 52.0171
lradius 42.1045
lwrist -0.381788
lhand -8.95403 -28.1276
lfingers 7.12502
lthumb 16.9907 1.14935
rfemur -18.9328 10.3973 18.8426
rtibia 42.9038
rfoot -16.0919 0.495683
rtoes -28.9055
lfemur -14.5271 -23.7064 -22.9966
ltibia 30.9502
lfoot 5.46524 -27.6505
ltoes 45.8801
993
root 8.16319 15.6188 -36.9923 1.15507 -65.8071 -358.352
lowerback 8.94324 3.24862 2.32517
upperback -4.8497 4.64149 -0.198077
thorax -10.008 2.06725 -2.31538
lowerneck -1.96608 13.8686 8.50517
upperneck 3.74911 18.5847 -6.71986
head 3.14249 9.24765 -2.80234
rclavicle -4.65156e-014 -6.16232e-015
rhumerus -22.8553 1.46189 -78.0183
rradius 46.1118
rwrist -6.18458
rhand -0.576824 -56.8788
rfingers 7.12502
rthumb 25.0378 -1165.26
lclavicle -4.65156e-014 -6.16232e-015
lhumerus -44.7366 14.895 52.0959
lradius 42.4
lwrist -0.463327
lhand -8.51612 -27.7873
lfingers 7.12502
lthumb 17.4122 1.45285
rfemur -18.8438 9.93731 18.9439
rtibia 42.8557
rfoot -15.6117 0.462374
rtoes -29.5002
lfemur -14.7143 -23.9054 -22.8944
ltibia 30.8844
lfoot 5.88756 -27.4606
ltoes 46.5196
994
root 8.15579 15.6184 -37.0345 1.38583 -64.3631 -358.413
lowerback 8.92758 3.26563 2.12161
upperback -4.92357 4.63965 -0.183604
thorax -10.0978 2.07778 -2.18895
lowerneck -2.12879 13.5075 8.15303
upperneck 3.94427 18.0944 -6.49232
head 3.13291 9.00061 -2.696
rclavicle 7.0991e-014 2.36554e-014
rhumerus -23.0542 1.50412 -78.0162
rradius 45.995
rwrist -5.87423
rhand -1.30193 -57.0315
rfingers 7.12502
rthumb 24.3428 -1165.51
lclavicle 7.0991e-014 2.36554e-014
lhumerus -44.845 14.7731 52.3715
lradius 42.2563
lwrist -0.862035
lhand -7.8103 -27.5883
lfingers 7.12502
lthumb 18.0914 1.59033
rfemur -18.8997 9.5139 19.0699
rtibia 42.9246
rfoot -15.1104 0.930918
rtoes -24.7575
lfemur -14.9855 -23.9343 -22.6839
ltibia 30.7266
lfoot 8.20833 -26.6709
ltoes 50.7949
995
root 8.1551 15.6343 -37.0811 1.98734 -62.7585 -358.862
lowerback 8.8367 3.19697 2.19994
upperback -4.92912 4.56036 -0.132673
thorax -10.0518 2.03769 -2.15874
lowerneck -2.17239 13.1578 7.68286
upperneck 3.91606 17.6255 -6.3129
head 3.02194 8.76421 -2.60019
rclavicle 2.45126e-014 4.96962e-015
rhumerus -23.0585 1.39798 -78.062
rradius 45.7863
rwrist -5.35669
rhand -2.44783 -57.3098
rfingers 7.12502
rthumb 23.2438 -1165.93
lclavicle 2.45126e-014 4.96962e-015
lhumerus -44.6205 14.6524 52.7676
lradius 41.8776
lwrist -1.28906
lhand -7.38345 -27.2109
lfingers 7.12502
lthumb 18.502 1.92918
rfemur -18.9527 8.86592 19.432
rtibia 42.9478
rfoot -14.4421 1.43295
rtoes -22.0926
lfemur -15.3088 -24.2875 -22.1194
ltibia 30.5551
lfoot 9.19331 -26.5328
ltoes 52.0582
996
root 8.14978 15.6504 -37.1249 2.43921 -61.2412 -359.152
lowerback 8.43905 3.08384 2.17996
upperback -4.79837 4.40116 -0.0374856
thorax -9.68759 1.97718 -1.98771
lowerneck -2.20819 12.9032 7.19749
upperneck 3.81911 17.2879 -6.21503
head 2.90696 8.59131 -2.51935
rclavicle -1.14922e-014 -3.97569e-015
rhumerus -22.7586 1.4382 -78.1546
rradius 45.4369
rwrist -4.76483
rhand -4.17577 -57.7739
rfingers 7.12502
rthumb 21.5852 -1166.59
lclavicle -1.14922e-014 -3.97569e-015
lhumerus -45.0366 14.8758 52.9933
lradius 42.067
lwrist -1.71715
lhand -7.3199 -26.8539
lfingers 7.12502
lthumb 18.5631 2.28041
rfemur -19.0028 8.20989 19.7387
rtibia 42.9562
rfoot -13.7522 1.56242
rtoes -25.4416
lfemur -15.6272 -24.6304 -21.7205
ltibia 30.354
lfoot 9.20595 -27.0978
ltoes 51.377
997
root 8.12408 15.6593 -37.1476 2.34722 -60.2932 -359.25
lowerback 8.29637 3.12321 2.27732
upperback -4.6169 4.45827 -0.0565616
thorax -9.3921 2.00755 -2.05394
lowerneck -2.35701 12.66 6.67349
upperneck 3.88022 16.9553 -5.89639
head 2.84093 8.42234 -2.3478
rclavicle 2.35808e-014 -3.97569e-016
rhumerus -22.7312 1.70937 -78.4137
rradius 45.2262
rwrist -4.42971
rhand -6.4314 -58.5565
rfingers 7.12502
rthumb 19.4176 -1167.61
lclavicle 2.35808e-014 -3.97569e-016
lhumerus -45.5963 15.1038 52.9965
lradius 42.3291
lwrist -2.21319
lhand -7.2335 -26.3925
lfingers 7.12502
lthumb 18.6462 2.73383
rfemur -18.6302 7.93786 19.9162
rtibia 42.9042
rfoot -12.9708 2.03208
rtoes -26.1586
lfemur -15.3178 -24.6637 -21.8084
ltibia 30.1723
lfoot 8.52687 -27.2556
ltoes 50.1097
